<svg width="445" height="166" viewBox="0 0 445 166" fill="none" xmlns="http://www.w3.org/2000/svg">
<path d="M41.687 3.34V37H33.935V21.547L34.19 11.194H34.088L25.775 37H18.686L10.373 11.194H10.271L10.526 21.547V37H2.723V3.34H15.218L20.522 20.476L22.409 27.616H22.511L24.449 20.527L29.702 3.34H41.687ZM62.6584 20.833C62.6584 19.643 62.3184 18.708 61.6384 18.028C60.9924 17.314 60.1084 16.957 58.9864 16.957C57.8644 16.957 56.8954 17.246 56.0794 17.824C55.2974 18.368 54.7534 19.354 54.4474 20.782L47.1034 19.048C47.5794 16.6 48.8374 14.645 50.8774 13.183C52.9174 11.721 55.7904 10.99 59.4964 10.99C63.2364 10.99 66.1264 11.823 68.1664 13.489C70.2404 15.121 71.2774 17.518 71.2774 20.68V30.013C71.2774 31.339 71.8724 32.002 73.0624 32.002C73.6744 32.002 74.1674 31.934 74.5414 31.798L74.0314 36.745C73.0114 37.221 71.7704 37.459 70.3084 37.459C68.7104 37.459 67.3334 37.153 66.1774 36.541C65.0214 35.895 64.2394 34.926 63.8314 33.634C63.1174 34.96 61.9784 35.946 60.4144 36.592C58.8844 37.204 57.2524 37.51 55.5184 37.51C52.9004 37.51 50.8094 36.915 49.2454 35.725C47.7154 34.501 46.9504 32.75 46.9504 30.472C46.9504 28.636 47.4944 27.123 48.5824 25.933C49.7044 24.709 51.4554 23.859 53.8354 23.383L62.6584 21.547V20.833ZM55.5184 29.656C55.5184 30.404 55.7904 30.965 56.3344 31.339C56.8784 31.713 57.5244 31.9 58.2724 31.9C59.4284 31.9 60.4484 31.56 61.3324 30.88C62.2164 30.166 62.6584 29.061 62.6584 27.565V26.137L58.5274 27.004C57.5074 27.208 56.7424 27.514 56.2324 27.922C55.7564 28.296 55.5184 28.874 55.5184 29.656ZM86.6335 0.687999V22.21L96.3235 11.5H105.963L96.5785 21.496L106.524 37H96.9355L90.7645 26.545L86.6335 31.135V37H77.9635V0.687999H86.6335ZM120.739 37.51C116.489 37.51 113.123 36.354 110.641 34.042C108.193 31.73 106.969 28.466 106.969 24.25C106.969 21.462 107.53 19.082 108.652 17.11C109.808 15.104 111.372 13.591 113.344 12.571C115.35 11.517 117.679 10.99 120.331 10.99C123.017 10.99 125.295 11.517 127.165 12.571C129.069 13.591 130.514 15.019 131.5 16.855C132.486 18.657 132.979 20.731 132.979 23.077C132.979 23.723 132.945 24.352 132.877 24.964C132.843 25.542 132.809 26.035 132.775 26.443H115.384C115.622 28.211 116.2 29.486 117.118 30.268C118.036 31.016 119.243 31.39 120.739 31.39C122.031 31.39 123.051 31.135 123.799 30.625C124.581 30.115 125.159 29.401 125.533 28.483L132.469 30.778C131.993 32.24 131.16 33.481 129.97 34.501C128.814 35.487 127.42 36.235 125.788 36.745C124.19 37.255 122.507 37.51 120.739 37.51ZM120.331 17.059C117.577 17.059 115.945 18.64 115.435 21.802H124.768C124.394 18.64 122.915 17.059 120.331 17.059ZM230.218 136.542C228.45 136.542 227.158 136.219 226.342 135.573C225.56 134.893 225.169 133.839 225.169 132.411C225.169 130.949 225.56 129.895 226.342 129.249C227.158 128.569 228.45 128.229 230.218 128.229C231.952 128.229 233.227 128.569 234.043 129.249C234.859 129.895 235.267 130.949 235.267 132.411C235.267 133.839 234.859 134.893 234.043 135.573C233.227 136.219 231.952 136.542 230.218 136.542ZM234.553 139.5V165H225.883V139.5H234.553ZM250.109 165.51C246.947 165.51 244.397 164.354 242.459 162.042C240.555 159.73 239.603 156.5 239.603 152.352C239.603 149.496 240.045 147.082 240.929 145.11C241.847 143.104 243.105 141.591 244.703 140.571C246.335 139.517 248.205 138.99 250.313 138.99C252.115 138.99 253.645 139.432 254.903 140.316C256.195 141.2 257.164 142.373 257.81 143.835V128.688H266.48V165H258.728L258.422 160.002C257.708 161.702 256.62 163.045 255.158 164.031C253.73 165.017 252.047 165.51 250.109 165.51ZM253.118 159.135C254.546 159.135 255.685 158.54 256.535 157.35C257.385 156.16 257.81 154.409 257.81 152.097C257.81 149.955 257.402 148.306 256.586 147.15C255.77 145.96 254.631 145.365 253.169 145.365C251.673 145.365 250.483 145.926 249.599 147.048C248.749 148.136 248.324 149.87 248.324 152.25C248.324 154.63 248.749 156.381 249.599 157.503C250.449 158.591 251.622 159.135 253.118 159.135ZM285.144 165.51C280.894 165.51 277.528 164.354 275.046 162.042C272.598 159.73 271.374 156.466 271.374 152.25C271.374 149.462 271.935 147.082 273.057 145.11C274.213 143.104 275.777 141.591 277.749 140.571C279.755 139.517 282.084 138.99 284.736 138.99C287.422 138.99 289.7 139.517 291.57 140.571C293.474 141.591 294.919 143.019 295.905 144.855C296.891 146.657 297.384 148.731 297.384 151.077C297.384 151.723 297.35 152.352 297.282 152.964C297.248 153.542 297.214 154.035 297.18 154.443H279.789C280.027 156.211 280.605 157.486 281.523 158.268C282.441 159.016 283.648 159.39 285.144 159.39C286.436 159.39 287.456 159.135 288.204 158.625C288.986 158.115 289.564 157.401 289.938 156.483L296.874 158.778C296.398 160.24 295.565 161.481 294.375 162.501C293.219 163.487 291.825 164.235 290.193 164.745C288.595 165.255 286.912 165.51 285.144 165.51ZM284.736 145.059C281.982 145.059 280.35 146.64 279.84 149.802H289.173C288.799 146.64 287.32 145.059 284.736 145.059ZM316.463 148.833C316.463 147.643 316.123 146.708 315.443 146.028C314.797 145.314 313.913 144.957 312.791 144.957C311.669 144.957 310.7 145.246 309.884 145.824C309.102 146.368 308.558 147.354 308.252 148.782L300.908 147.048C301.384 144.6 302.642 142.645 304.682 141.183C306.722 139.721 309.595 138.99 313.301 138.99C317.041 138.99 319.931 139.823 321.971 141.489C324.045 143.121 325.082 145.518 325.082 148.68V158.013C325.082 159.339 325.677 160.002 326.867 160.002C327.479 160.002 327.972 159.934 328.346 159.798L327.836 164.745C326.816 165.221 325.575 165.459 324.113 165.459C322.515 165.459 321.138 165.153 319.982 164.541C318.826 163.895 318.044 162.926 317.636 161.634C316.922 162.96 315.783 163.946 314.219 164.592C312.689 165.204 311.057 165.51 309.323 165.51C306.705 165.51 304.614 164.915 303.05 163.725C301.52 162.501 300.755 160.75 300.755 158.472C300.755 156.636 301.299 155.123 302.387 153.933C303.509 152.709 305.26 151.859 307.64 151.383L316.463 149.547V148.833ZM309.323 157.656C309.323 158.404 309.595 158.965 310.139 159.339C310.683 159.713 311.329 159.9 312.077 159.9C313.233 159.9 314.253 159.56 315.137 158.88C316.021 158.166 316.463 157.061 316.463 155.565V154.137L312.332 155.004C311.312 155.208 310.547 155.514 310.037 155.922C309.561 156.296 309.323 156.874 309.323 157.656ZM342.478 165.51C339.928 165.51 337.565 165.102 335.389 164.286C333.213 163.436 331.394 162.229 329.932 160.665L334.012 155.871C334.862 156.959 335.984 157.877 337.378 158.625C338.806 159.339 340.387 159.696 342.121 159.696C343.175 159.696 344.042 159.543 344.722 159.237C345.402 158.931 345.742 158.455 345.742 157.809C345.742 157.367 345.572 156.993 345.232 156.687C344.892 156.381 344.212 156.126 343.192 155.922L339.622 155.208C336.426 154.562 334.148 153.61 332.788 152.352C331.462 151.06 330.799 149.377 330.799 147.303C330.799 145.909 331.224 144.583 332.074 143.325C332.924 142.067 334.233 141.03 336.001 140.214C337.769 139.398 340.03 138.99 342.784 138.99C348.054 138.99 351.896 140.452 354.31 143.376L350.179 148.068C349.363 147.048 348.309 146.249 347.017 145.671C345.725 145.093 344.433 144.804 343.141 144.804C340.659 144.804 339.418 145.433 339.418 146.691C339.418 147.133 339.622 147.524 340.03 147.864C340.472 148.204 341.271 148.476 342.427 148.68L347.068 149.598C349.686 150.108 351.573 150.992 352.729 152.25C353.885 153.474 354.463 154.97 354.463 156.738C354.463 159.22 353.46 161.311 351.454 163.011C349.482 164.677 346.49 165.51 342.478 165.51ZM363.246 156.228C364.844 156.228 366.085 156.636 366.969 157.452C367.887 158.268 368.346 159.407 368.346 160.869C368.346 162.297 367.887 163.419 366.969 164.235C366.085 165.051 364.844 165.459 363.246 165.459C361.648 165.459 360.39 165.051 359.472 164.235C358.588 163.419 358.146 162.297 358.146 160.869C358.146 159.407 358.588 158.268 359.472 157.452C360.39 156.636 361.648 156.228 363.246 156.228Z" fill="#32A3B2"/>
<path d="M166.651 20.833C166.651 19.643 166.311 18.708 165.631 18.028C164.985 17.314 164.101 16.957 162.979 16.957C161.857 16.957 160.888 17.246 160.072 17.824C159.29 18.368 158.746 19.354 158.44 20.782L151.096 19.048C151.572 16.6 152.83 14.645 154.87 13.183C156.91 11.721 159.783 10.99 163.489 10.99C167.229 10.99 170.119 11.823 172.159 13.489C174.233 15.121 175.27 17.518 175.27 20.68V30.013C175.27 31.339 175.865 32.002 177.055 32.002C177.667 32.002 178.16 31.934 178.534 31.798L178.024 36.745C177.004 37.221 175.763 37.459 174.301 37.459C172.703 37.459 171.326 37.153 170.17 36.541C169.014 35.895 168.232 34.926 167.824 33.634C167.11 34.96 165.971 35.946 164.407 36.592C162.877 37.204 161.245 37.51 159.511 37.51C156.893 37.51 154.802 36.915 153.238 35.725C151.708 34.501 150.943 32.75 150.943 30.472C150.943 28.636 151.487 27.123 152.575 25.933C153.697 24.709 155.448 23.859 157.828 23.383L166.651 21.547V20.833ZM159.511 29.656C159.511 30.404 159.783 30.965 160.327 31.339C160.871 31.713 161.517 31.9 162.265 31.9C163.421 31.9 164.441 31.56 165.325 30.88C166.209 30.166 166.651 29.061 166.651 27.565V26.137L162.52 27.004C161.5 27.208 160.735 27.514 160.225 27.922C159.749 28.296 159.511 28.874 159.511 29.656ZM226.547 27.361C225.561 30.897 223.742 33.481 221.09 35.113C218.472 36.711 215.378 37.51 211.808 37.51C208.374 37.51 205.416 36.83 202.934 35.47C200.486 34.076 198.599 32.087 197.273 29.503C195.947 26.919 195.284 23.808 195.284 20.17C195.284 16.532 195.947 13.421 197.273 10.837C198.599 8.253 200.486 6.281 202.934 4.921C205.416 3.527 208.357 2.83 211.757 2.83C215.259 2.83 218.319 3.578 220.937 5.074C223.555 6.57 225.289 8.916 226.139 12.112L218.438 15.223C217.962 13.149 217.18 11.721 216.092 10.939C215.038 10.123 213.695 9.715 212.063 9.715C209.615 9.715 207.694 10.599 206.3 12.367C204.94 14.135 204.26 16.736 204.26 20.17C204.26 23.604 204.906 26.205 206.198 27.973C207.524 29.741 209.496 30.625 212.114 30.625C213.746 30.625 215.123 30.183 216.245 29.299C217.401 28.381 218.183 26.987 218.591 25.117L226.547 27.361ZM230.814 37V11.5H238.464L238.821 17.008C239.433 15.138 240.368 13.676 241.626 12.622C242.918 11.534 244.567 10.99 246.573 10.99C247.219 10.99 247.763 11.058 248.205 11.194C248.681 11.296 249.055 11.415 249.327 11.551L248.46 18.691C248.12 18.589 247.678 18.487 247.134 18.385C246.624 18.283 245.995 18.232 245.247 18.232C243.683 18.232 242.323 18.725 241.167 19.711C240.045 20.697 239.484 22.176 239.484 24.148V37H230.814ZM264.873 37.51C260.623 37.51 257.257 36.354 254.775 34.042C252.327 31.73 251.103 28.466 251.103 24.25C251.103 21.462 251.664 19.082 252.786 17.11C253.942 15.104 255.506 13.591 257.478 12.571C259.484 11.517 261.813 10.99 264.465 10.99C267.151 10.99 269.429 11.517 271.299 12.571C273.203 13.591 274.648 15.019 275.634 16.855C276.62 18.657 277.113 20.731 277.113 23.077C277.113 23.723 277.079 24.352 277.011 24.964C276.977 25.542 276.943 26.035 276.909 26.443H259.518C259.756 28.211 260.334 29.486 261.252 30.268C262.17 31.016 263.377 31.39 264.873 31.39C266.165 31.39 267.185 31.135 267.933 30.625C268.715 30.115 269.293 29.401 269.667 28.483L276.603 30.778C276.127 32.24 275.294 33.481 274.104 34.501C272.948 35.487 271.554 36.235 269.922 36.745C268.324 37.255 266.641 37.51 264.873 37.51ZM264.465 17.059C261.711 17.059 260.079 18.64 259.569 21.802H268.902C268.528 18.64 267.049 17.059 264.465 17.059ZM296.193 20.833C296.193 19.643 295.853 18.708 295.173 18.028C294.527 17.314 293.643 16.957 292.521 16.957C291.399 16.957 290.43 17.246 289.614 17.824C288.832 18.368 288.288 19.354 287.982 20.782L280.638 19.048C281.114 16.6 282.372 14.645 284.412 13.183C286.452 11.721 289.325 10.99 293.031 10.99C296.771 10.99 299.661 11.823 301.701 13.489C303.775 15.121 304.812 17.518 304.812 20.68V30.013C304.812 31.339 305.407 32.002 306.597 32.002C307.209 32.002 307.702 31.934 308.076 31.798L307.566 36.745C306.546 37.221 305.305 37.459 303.843 37.459C302.245 37.459 300.868 37.153 299.712 36.541C298.556 35.895 297.774 34.926 297.366 33.634C296.652 34.96 295.513 35.946 293.949 36.592C292.419 37.204 290.787 37.51 289.053 37.51C286.435 37.51 284.344 36.915 282.78 35.725C281.25 34.501 280.485 32.75 280.485 30.472C280.485 28.636 281.029 27.123 282.117 25.933C283.239 24.709 284.99 23.859 287.37 23.383L296.193 21.547V20.833ZM289.053 29.656C289.053 30.404 289.325 30.965 289.869 31.339C290.413 31.713 291.059 31.9 291.807 31.9C292.963 31.9 293.983 31.56 294.867 30.88C295.751 30.166 296.193 29.061 296.193 27.565V26.137L292.062 27.004C291.042 27.208 290.277 27.514 289.767 27.922C289.291 28.296 289.053 28.874 289.053 29.656ZM328.76 11.5V17.671H321.161V27.922C321.161 29.146 321.45 30.03 322.028 30.574C322.64 31.084 323.473 31.339 324.527 31.339C325.343 31.339 326.04 31.254 326.618 31.084C327.196 30.88 327.74 30.591 328.25 30.217L329.168 35.572C328.318 36.15 327.23 36.626 325.904 37C324.612 37.34 323.303 37.51 321.977 37.51C319.053 37.51 316.741 36.898 315.041 35.674C313.375 34.416 312.525 32.308 312.491 29.35V17.671H308.105V11.5H312.491V5.788L321.161 3.391V11.5H328.76ZM337.099 8.542C335.331 8.542 334.039 8.219 333.223 7.573C332.441 6.893 332.05 5.839 332.05 4.411C332.05 2.949 332.441 1.895 333.223 1.249C334.039 0.568999 335.331 0.228999 337.099 0.228999C338.833 0.228999 340.108 0.568999 340.924 1.249C341.74 1.895 342.148 2.949 342.148 4.411C342.148 5.839 341.74 6.893 340.924 7.573C340.108 8.219 338.833 8.542 337.099 8.542ZM341.434 11.5V37H332.764V11.5H341.434ZM364.181 11.5H373.157L363.977 37H353.624L344.444 11.5H353.573L358.826 30.931L364.181 11.5ZM388.19 37.51C383.94 37.51 380.574 36.354 378.092 34.042C375.644 31.73 374.42 28.466 374.42 24.25C374.42 21.462 374.981 19.082 376.103 17.11C377.259 15.104 378.823 13.591 380.795 12.571C382.801 11.517 385.13 10.99 387.782 10.99C390.468 10.99 392.746 11.517 394.616 12.571C396.52 13.591 397.965 15.019 398.951 16.855C399.937 18.657 400.43 20.731 400.43 23.077C400.43 23.723 400.396 24.352 400.328 24.964C400.294 25.542 400.26 26.035 400.226 26.443H382.835C383.073 28.211 383.651 29.486 384.569 30.268C385.487 31.016 386.694 31.39 388.19 31.39C389.482 31.39 390.502 31.135 391.25 30.625C392.032 30.115 392.61 29.401 392.984 28.483L399.92 30.778C399.444 32.24 398.611 33.481 397.421 34.501C396.265 35.487 394.871 36.235 393.239 36.745C391.641 37.255 389.958 37.51 388.19 37.51ZM387.782 17.059C385.028 17.059 383.396 18.64 382.886 21.802H392.219C391.845 18.64 390.366 17.059 387.782 17.059ZM12.821 101.51C10.271 101.51 7.908 101.102 5.732 100.286C3.556 99.436 1.737 98.229 0.275 96.665L4.355 91.871C5.205 92.959 6.327 93.877 7.721 94.625C9.149 95.339 10.73 95.696 12.464 95.696C13.518 95.696 14.385 95.543 15.065 95.237C15.745 94.931 16.085 94.455 16.085 93.809C16.085 93.367 15.915 92.993 15.575 92.687C15.235 92.381 14.555 92.126 13.535 91.922L9.965 91.208C6.769 90.562 4.491 89.61 3.131 88.352C1.805 87.06 1.142 85.377 1.142 83.303C1.142 81.909 1.567 80.583 2.417 79.325C3.267 78.067 4.576 77.03 6.344 76.214C8.112 75.398 10.373 74.99 13.127 74.99C18.397 74.99 22.239 76.452 24.653 79.376L20.522 84.068C19.706 83.048 18.652 82.249 17.36 81.671C16.068 81.093 14.776 80.804 13.484 80.804C11.002 80.804 9.761 81.433 9.761 82.691C9.761 83.133 9.965 83.524 10.373 83.864C10.815 84.204 11.614 84.476 12.77 84.68L17.411 85.598C20.029 86.108 21.916 86.992 23.072 88.25C24.228 89.474 24.806 90.97 24.806 92.738C24.806 95.22 23.803 97.311 21.797 99.011C19.825 100.677 16.833 101.51 12.821 101.51ZM41.2929 74.99C43.9789 74.99 46.3249 75.517 48.3309 76.571C50.3709 77.625 51.9519 79.138 53.0739 81.11C54.2299 83.082 54.8079 85.462 54.8079 88.25C54.8079 91.038 54.2299 93.418 53.0739 95.39C51.9519 97.362 50.3709 98.875 48.3309 99.929C46.3249 100.983 43.9789 101.51 41.2929 101.51C38.6409 101.51 36.2949 100.983 34.2549 99.929C32.2489 98.875 30.6679 97.362 29.5119 95.39C28.3899 93.418 27.8289 91.038 27.8289 88.25C27.8289 85.462 28.3899 83.082 29.5119 81.11C30.6679 79.138 32.2489 77.625 34.2549 76.571C36.2949 75.517 38.6409 74.99 41.2929 74.99ZM41.2929 81.161C39.7969 81.161 38.6239 81.722 37.7739 82.844C36.9579 83.932 36.5499 85.734 36.5499 88.25C36.5499 90.732 36.9579 92.534 37.7739 93.656C38.6239 94.778 39.7969 95.339 41.2929 95.339C42.8229 95.339 43.9959 94.778 44.8119 93.656C45.6619 92.534 46.0869 90.732 46.0869 88.25C46.0869 85.734 45.6619 83.932 44.8119 82.844C43.9959 81.722 42.8229 81.161 41.2929 81.161ZM68.2532 64.688V92.33C68.2532 93.452 68.4402 94.251 68.8142 94.727C69.1882 95.203 69.8172 95.441 70.7012 95.441C71.2112 95.441 71.6362 95.407 71.9762 95.339C72.3162 95.271 72.7242 95.169 73.2002 95.033L72.6392 100.235C72.0272 100.609 71.2282 100.915 70.2422 101.153C69.2562 101.391 68.2872 101.51 67.3352 101.51C64.6152 101.51 62.6432 100.881 61.4192 99.623C60.1952 98.365 59.5832 96.308 59.5832 93.452V64.688H68.2532ZM84.9888 101.51C82.4048 101.51 80.2968 100.813 78.6648 99.419C77.0328 98.025 76.2168 95.73 76.2168 92.534V75.5H84.8868V90.494C84.8868 92.126 85.2098 93.265 85.8558 93.911C86.5018 94.557 87.4198 94.88 88.6098 94.88C89.8338 94.88 90.8708 94.438 91.7208 93.554C92.6048 92.636 93.0468 91.174 93.0468 89.168V75.5H101.717V101H93.9648L93.7098 96.206C92.8938 98.008 91.7548 99.351 90.2928 100.235C88.8308 101.085 87.0628 101.51 84.9888 101.51ZM126.204 75.5V81.671H118.605V91.922C118.605 93.146 118.894 94.03 119.472 94.574C120.084 95.084 120.917 95.339 121.971 95.339C122.787 95.339 123.484 95.254 124.062 95.084C124.64 94.88 125.184 94.591 125.694 94.217L126.612 99.572C125.762 100.15 124.674 100.626 123.348 101C122.056 101.34 120.747 101.51 119.421 101.51C116.497 101.51 114.185 100.898 112.485 99.674C110.819 98.416 109.969 96.308 109.935 93.35V81.671H105.549V75.5H109.935V69.788L118.605 67.391V75.5H126.204ZM134.544 72.542C132.776 72.542 131.484 72.219 130.668 71.573C129.886 70.893 129.495 69.839 129.495 68.411C129.495 66.949 129.886 65.895 130.668 65.249C131.484 64.569 132.776 64.229 134.544 64.229C136.278 64.229 137.553 64.569 138.369 65.249C139.185 65.895 139.593 66.949 139.593 68.411C139.593 69.839 139.185 70.893 138.369 71.573C137.553 72.219 136.278 72.542 134.544 72.542ZM138.879 75.5V101H130.209V75.5H138.879ZM157.188 74.99C159.874 74.99 162.22 75.517 164.226 76.571C166.266 77.625 167.847 79.138 168.969 81.11C170.125 83.082 170.703 85.462 170.703 88.25C170.703 91.038 170.125 93.418 168.969 95.39C167.847 97.362 166.266 98.875 164.226 99.929C162.22 100.983 159.874 101.51 157.188 101.51C154.536 101.51 152.19 100.983 150.15 99.929C148.144 98.875 146.563 97.362 145.407 95.39C144.285 93.418 143.724 91.038 143.724 88.25C143.724 85.462 144.285 83.082 145.407 81.11C146.563 79.138 148.144 77.625 150.15 76.571C152.19 75.517 154.536 74.99 157.188 74.99ZM157.188 81.161C155.692 81.161 154.519 81.722 153.669 82.844C152.853 83.932 152.445 85.734 152.445 88.25C152.445 90.732 152.853 92.534 153.669 93.656C154.519 94.778 155.692 95.339 157.188 95.339C158.718 95.339 159.891 94.778 160.707 93.656C161.557 92.534 161.982 90.732 161.982 88.25C161.982 85.734 161.557 83.932 160.707 82.844C159.891 81.722 158.718 81.161 157.188 81.161ZM175.581 101V75.5H183.333L183.588 80.651C184.37 78.781 185.509 77.37 187.005 76.418C188.501 75.466 190.269 74.99 192.309 74.99C194.927 74.99 197.052 75.755 198.684 77.285C200.316 78.815 201.132 81.059 201.132 84.017V101H192.462V86.312C192.462 84.544 192.122 83.32 191.442 82.64C190.762 81.96 189.895 81.62 188.841 81.62C187.583 81.62 186.495 82.062 185.577 82.946C184.693 83.83 184.251 85.343 184.251 87.485V101H175.581ZM217.917 101.51C215.367 101.51 213.004 101.102 210.828 100.286C208.652 99.436 206.833 98.229 205.371 96.665L209.451 91.871C210.301 92.959 211.423 93.877 212.817 94.625C214.245 95.339 215.826 95.696 217.56 95.696C218.614 95.696 219.481 95.543 220.161 95.237C220.841 94.931 221.181 94.455 221.181 93.809C221.181 93.367 221.011 92.993 220.671 92.687C220.331 92.381 219.651 92.126 218.631 91.922L215.061 91.208C211.865 90.562 209.587 89.61 208.227 88.352C206.901 87.06 206.238 85.377 206.238 83.303C206.238 81.909 206.663 80.583 207.513 79.325C208.363 78.067 209.672 77.03 211.44 76.214C213.208 75.398 215.469 74.99 218.223 74.99C223.493 74.99 227.335 76.452 229.749 79.376L225.618 84.068C224.802 83.048 223.748 82.249 222.456 81.671C221.164 81.093 219.872 80.804 218.58 80.804C216.098 80.804 214.857 81.433 214.857 82.691C214.857 83.133 215.061 83.524 215.469 83.864C215.911 84.204 216.71 84.476 217.866 84.68L222.507 85.598C225.125 86.108 227.012 86.992 228.168 88.25C229.324 89.474 229.902 90.97 229.902 92.738C229.902 95.22 228.899 97.311 226.893 99.011C224.921 100.677 221.929 101.51 217.917 101.51ZM266.24 75.5V81.671H258.998V101H250.328V81.671H246.248V75.5H250.328V73.154C250.328 70.978 250.787 69.227 251.705 67.901C252.657 66.541 253.898 65.555 255.428 64.943C256.992 64.297 258.675 63.974 260.477 63.974C261.871 63.974 263.095 64.127 264.149 64.433C265.203 64.705 265.985 65.028 266.495 65.402L265.628 70.808C265.254 70.604 264.829 70.434 264.353 70.298C263.877 70.128 263.282 70.043 262.568 70.043C261.344 70.043 260.358 70.315 259.61 70.859C258.862 71.403 258.488 72.355 258.488 73.715V75.5H266.24ZM281.601 74.99C284.287 74.99 286.633 75.517 288.639 76.571C290.679 77.625 292.26 79.138 293.382 81.11C294.538 83.082 295.116 85.462 295.116 88.25C295.116 91.038 294.538 93.418 293.382 95.39C292.26 97.362 290.679 98.875 288.639 99.929C286.633 100.983 284.287 101.51 281.601 101.51C278.949 101.51 276.603 100.983 274.563 99.929C272.557 98.875 270.976 97.362 269.82 95.39C268.698 93.418 268.137 91.038 268.137 88.25C268.137 85.462 268.698 83.082 269.82 81.11C270.976 79.138 272.557 77.625 274.563 76.571C276.603 75.517 278.949 74.99 281.601 74.99ZM281.601 81.161C280.105 81.161 278.932 81.722 278.082 82.844C277.266 83.932 276.858 85.734 276.858 88.25C276.858 90.732 277.266 92.534 278.082 93.656C278.932 94.778 280.105 95.339 281.601 95.339C283.131 95.339 284.304 94.778 285.12 93.656C285.97 92.534 286.395 90.732 286.395 88.25C286.395 85.734 285.97 83.932 285.12 82.844C284.304 81.722 283.131 81.161 281.601 81.161ZM299.993 101V75.5H307.643L308 81.008C308.612 79.138 309.547 77.676 310.805 76.622C312.097 75.534 313.746 74.99 315.752 74.99C316.398 74.99 316.942 75.058 317.384 75.194C317.86 75.296 318.234 75.415 318.506 75.551L317.639 82.691C317.299 82.589 316.857 82.487 316.313 82.385C315.803 82.283 315.174 82.232 314.426 82.232C312.862 82.232 311.502 82.725 310.346 83.711C309.224 84.697 308.663 86.176 308.663 88.148V101H299.993ZM360.908 75.5L351.626 101C350.674 103.686 349.637 105.828 348.515 107.426C347.393 109.058 346.067 110.214 344.537 110.894C343.007 111.608 341.171 111.965 339.029 111.965C337.567 111.965 336.241 111.812 335.051 111.506C333.895 111.2 332.875 110.775 331.991 110.231L333.725 104.366C334.337 104.808 334.983 105.114 335.663 105.284C336.343 105.488 337.21 105.59 338.264 105.59C339.25 105.59 340.049 105.42 340.661 105.08C341.307 104.774 341.817 104.128 342.191 103.142L342.854 101.561L339.896 94.625L332.246 75.5H341.783L345.71 90.035L346.934 95.441L348.362 89.831L352.289 75.5H360.908ZM375.682 74.99C378.368 74.99 380.714 75.517 382.72 76.571C384.76 77.625 386.341 79.138 387.463 81.11C388.619 83.082 389.197 85.462 389.197 88.25C389.197 91.038 388.619 93.418 387.463 95.39C386.341 97.362 384.76 98.875 382.72 99.929C380.714 100.983 378.368 101.51 375.682 101.51C373.03 101.51 370.684 100.983 368.644 99.929C366.638 98.875 365.057 97.362 363.901 95.39C362.779 93.418 362.218 91.038 362.218 88.25C362.218 85.462 362.779 83.082 363.901 81.11C365.057 79.138 366.638 77.625 368.644 76.571C370.684 75.517 373.03 74.99 375.682 74.99ZM375.682 81.161C374.186 81.161 373.013 81.722 372.163 82.844C371.347 83.932 370.939 85.734 370.939 88.25C370.939 90.732 371.347 92.534 372.163 93.656C373.013 94.778 374.186 95.339 375.682 95.339C377.212 95.339 378.385 94.778 379.201 93.656C380.051 92.534 380.476 90.732 380.476 88.25C380.476 85.734 380.051 83.932 379.201 82.844C378.385 81.722 377.212 81.161 375.682 81.161ZM402.693 101.51C400.109 101.51 398.001 100.813 396.369 99.419C394.737 98.025 393.921 95.73 393.921 92.534V75.5H402.591V90.494C402.591 92.126 402.914 93.265 403.56 93.911C404.206 94.557 405.124 94.88 406.314 94.88C407.538 94.88 408.575 94.438 409.425 93.554C410.309 92.636 410.751 91.174 410.751 89.168V75.5H419.421V101H411.669L411.414 96.206C410.598 98.008 409.459 99.351 407.997 100.235C406.535 101.085 404.767 101.51 402.693 101.51ZM425.65 101V75.5H433.3L433.657 81.008C434.269 79.138 435.204 77.676 436.462 76.622C437.754 75.534 439.403 74.99 441.409 74.99C442.055 74.99 442.599 75.058 443.041 75.194C443.517 75.296 443.891 75.415 444.163 75.551L443.296 82.691C442.956 82.589 442.514 82.487 441.97 82.385C441.46 82.283 440.831 82.232 440.083 82.232C438.519 82.232 437.159 82.725 436.003 83.711C434.881 84.697 434.32 86.176 434.32 88.148V101H425.65ZM32.558 155.361C31.572 158.897 29.753 161.481 27.101 163.113C24.483 164.711 21.389 165.51 17.819 165.51C14.385 165.51 11.427 164.83 8.945 163.47C6.497 162.076 4.61 160.087 3.284 157.503C1.958 154.919 1.295 151.808 1.295 148.17C1.295 144.532 1.958 141.421 3.284 138.837C4.61 136.253 6.497 134.281 8.945 132.921C11.427 131.527 14.368 130.83 17.768 130.83C21.27 130.83 24.33 131.578 26.948 133.074C29.566 134.57 31.3 136.916 32.15 140.112L24.449 143.223C23.973 141.149 23.191 139.721 22.103 138.939C21.049 138.123 19.706 137.715 18.074 137.715C15.626 137.715 13.705 138.599 12.311 140.367C10.951 142.135 10.271 144.736 10.271 148.17C10.271 151.604 10.917 154.205 12.209 155.973C13.535 157.741 15.507 158.625 18.125 158.625C19.757 158.625 21.134 158.183 22.256 157.299C23.412 156.381 24.194 154.987 24.602 153.117L32.558 155.361ZM36.8249 165V139.5H44.4749L44.8319 145.008C45.4439 143.138 46.3789 141.676 47.6369 140.622C48.9289 139.534 50.5779 138.99 52.5839 138.99C53.2299 138.99 53.7739 139.058 54.2159 139.194C54.6919 139.296 55.0659 139.415 55.3379 139.551L54.4709 146.691C54.1309 146.589 53.6889 146.487 53.1449 146.385C52.6349 146.283 52.0059 146.232 51.2579 146.232C49.6939 146.232 48.3339 146.725 47.1779 147.711C46.0559 148.697 45.4949 150.176 45.4949 152.148V165H36.8249ZM70.8841 165.51C66.6341 165.51 63.2681 164.354 60.7861 162.042C58.3381 159.73 57.1141 156.466 57.1141 152.25C57.1141 149.462 57.6751 147.082 58.7971 145.11C59.9531 143.104 61.5171 141.591 63.4891 140.571C65.4951 139.517 67.8241 138.99 70.4761 138.99C73.1621 138.99 75.4401 139.517 77.3101 140.571C79.2141 141.591 80.6591 143.019 81.6451 144.855C82.6311 146.657 83.1241 148.731 83.1241 151.077C83.1241 151.723 83.0901 152.352 83.0221 152.964C82.9881 153.542 82.9541 154.035 82.9201 154.443H65.5291C65.7671 156.211 66.3451 157.486 67.2631 158.268C68.1811 159.016 69.3881 159.39 70.8841 159.39C72.1761 159.39 73.1961 159.135 73.9441 158.625C74.7261 158.115 75.3041 157.401 75.6781 156.483L82.6141 158.778C82.1381 160.24 81.3051 161.481 80.1151 162.501C78.9591 163.487 77.5651 164.235 75.9331 164.745C74.3351 165.255 72.6521 165.51 70.8841 165.51ZM70.4761 145.059C67.7221 145.059 66.0901 146.64 65.5801 149.802H74.9131C74.5391 146.64 73.0601 145.059 70.4761 145.059ZM102.203 148.833C102.203 147.643 101.863 146.708 101.183 146.028C100.537 145.314 99.6533 144.957 98.5313 144.957C97.4093 144.957 96.4403 145.246 95.6243 145.824C94.8423 146.368 94.2983 147.354 93.9923 148.782L86.6483 147.048C87.1243 144.6 88.3823 142.645 90.4223 141.183C92.4623 139.721 95.3353 138.99 99.0413 138.99C102.781 138.99 105.671 139.823 107.711 141.489C109.785 143.121 110.822 145.518 110.822 148.68V158.013C110.822 159.339 111.417 160.002 112.607 160.002C113.219 160.002 113.712 159.934 114.086 159.798L113.576 164.745C112.556 165.221 111.315 165.459 109.853 165.459C108.255 165.459 106.878 165.153 105.722 164.541C104.566 163.895 103.784 162.926 103.376 161.634C102.662 162.96 101.523 163.946 99.9593 164.592C98.4293 165.204 96.7973 165.51 95.0633 165.51C92.4453 165.51 90.3543 164.915 88.7903 163.725C87.2603 162.501 86.4953 160.75 86.4953 158.472C86.4953 156.636 87.0393 155.123 88.1273 153.933C89.2493 152.709 91.0003 151.859 93.3803 151.383L102.203 149.547V148.833ZM95.0633 157.656C95.0633 158.404 95.3353 158.965 95.8793 159.339C96.4233 159.713 97.0693 159.9 97.8173 159.9C98.9733 159.9 99.9933 159.56 100.877 158.88C101.761 158.166 102.203 157.061 102.203 155.565V154.137L98.0723 155.004C97.0523 155.208 96.2873 155.514 95.7773 155.922C95.3013 156.296 95.0633 156.874 95.0633 157.656ZM134.77 139.5V145.671H127.171V155.922C127.171 157.146 127.46 158.03 128.038 158.574C128.65 159.084 129.483 159.339 130.537 159.339C131.353 159.339 132.05 159.254 132.628 159.084C133.206 158.88 133.75 158.591 134.26 158.217L135.178 163.572C134.328 164.15 133.24 164.626 131.914 165C130.622 165.34 129.313 165.51 127.987 165.51C125.063 165.51 122.751 164.898 121.051 163.674C119.385 162.416 118.535 160.308 118.501 157.35V145.671H114.115V139.5H118.501V133.788L127.171 131.391V139.5H134.77ZM143.11 136.542C141.342 136.542 140.05 136.219 139.234 135.573C138.452 134.893 138.061 133.839 138.061 132.411C138.061 130.949 138.452 129.895 139.234 129.249C140.05 128.569 141.342 128.229 143.11 128.229C144.844 128.229 146.119 128.569 146.935 129.249C147.751 129.895 148.159 130.949 148.159 132.411C148.159 133.839 147.751 134.893 146.935 135.573C146.119 136.219 144.844 136.542 143.11 136.542ZM147.445 139.5V165H138.775V139.5H147.445ZM170.192 139.5H179.168L169.988 165H159.635L150.455 139.5H159.584L164.837 158.931L170.192 139.5ZM194.201 165.51C189.951 165.51 186.585 164.354 184.103 162.042C181.655 159.73 180.431 156.466 180.431 152.25C180.431 149.462 180.992 147.082 182.114 145.11C183.27 143.104 184.834 141.591 186.806 140.571C188.812 139.517 191.141 138.99 193.793 138.99C196.479 138.99 198.757 139.517 200.627 140.571C202.531 141.591 203.976 143.019 204.962 144.855C205.948 146.657 206.441 148.731 206.441 151.077C206.441 151.723 206.407 152.352 206.339 152.964C206.305 153.542 206.271 154.035 206.237 154.443H188.846C189.084 156.211 189.662 157.486 190.58 158.268C191.498 159.016 192.705 159.39 194.201 159.39C195.493 159.39 196.513 159.135 197.261 158.625C198.043 158.115 198.621 157.401 198.995 156.483L205.931 158.778C205.455 160.24 204.622 161.481 203.432 162.501C202.276 163.487 200.882 164.235 199.25 164.745C197.652 165.255 195.969 165.51 194.201 165.51ZM193.793 145.059C191.039 145.059 189.407 146.64 188.897 149.802H198.23C197.856 146.64 196.377 145.059 193.793 145.059Z" fill="#252626"/>
</svg>
